<svg xmlns="http://www.w3.org/2000/svg" width="440" height="170" viewBox="0 0 440 170" font-family="'JetBrains Mono', monospace">
<defs>
  <linearGradient id="hdr" x1="0" y1="0" x2="1" y2="0">
    <stop offset="0%" stop-color="#6366F1" stop-opacity="1"/>
    <stop offset="100%" stop-color="#6366F1" stop-opacity="0.5"/>
  </linearGradient>
  <linearGradient id="card-bg" x1="0" y1="0" x2="0" y2="1">
    <stop offset="0%" stop-color="#6366F1" stop-opacity="0.05"/>
    <stop offset="100%" stop-color="#6366F1" stop-opacity="0.0"/>
  </linearGradient>
  <clipPath id="clip"><rect width="440" height="170" rx="14"/></clipPath>
  <filter id="glow">
    <feGaussianBlur stdDeviation="3" result="blur"/>
    <feMerge><feMergeNode in="blur"/><feMergeNode in="SourceGraphic"/></feMerge>
  </filter>
</defs>
<rect width="440" height="170" rx="14" fill="#f6f8fa" stroke="#d0d7de" stroke-width="1"/>
<rect width="440" height="170" rx="14" fill="url(#card-bg)"/>
<rect width="440" height="4" rx="0" fill="url(#hdr)" clip-path="url(#clip)"/>
<rect x="18" y="18" width="18" height="14" rx="3" fill="#6366F1" opacity="0.85"/>
<rect x="18" y="16" width="8" height="5" rx="2" fill="#6366F1" opacity="0.6"/>
<text x="44" y="31" fill="#6366F1" font-size="15" font-weight="700" filter="url(#glow)">Comp-IQ</text>
<text x="18" y="54" fill="#24292f" font-size="11.5">Computational intelligence platform for algorithmic</text>
<text x="18" y="71" fill="#24292f" font-size="11.5">problem-solving with auto-generated test case…</text>
<rect x="18" y="128" width="56" height="16" rx="8" fill="#6366F1" fill-opacity="0.15" stroke="#6366F1" stroke-opacity="0.4" stroke-width="1"/>
<text x="46.0" y="139" text-anchor="middle" fill="#6366F1" font-size="9.5">Python</text>
<rect x="80" y="128" width="84" height="16" rx="8" fill="#6366F1" fill-opacity="0.15" stroke="#6366F1" stroke-opacity="0.4" stroke-width="1"/>
<text x="122.0" y="139" text-anchor="middle" fill="#6366F1" font-size="9.5">TypeScript</text>
<rect x="170" y="128" width="49" height="16" rx="8" fill="#6366F1" fill-opacity="0.15" stroke="#6366F1" stroke-opacity="0.4" stroke-width="1"/>
<text x="194.5" y="139" text-anchor="middle" fill="#6366F1" font-size="9.5">React</text>
<rect x="225" y="128" width="84" height="16" rx="8" fill="#6366F1" fill-opacity="0.15" stroke="#6366F1" stroke-opacity="0.4" stroke-width="1"/>
<text x="267.0" y="139" text-anchor="middle" fill="#6366F1" font-size="9.5">PostgreSQL</text>
<circle cx="18" cy="149" r="5" fill="#2b7489"/>
<text x="28" y="152" fill="#57606a" font-size="10.5">TypeScript</text>
<text x="320" y="152" fill="#57606a" font-size="10.5">★ 1</text>
<text x="372" y="152" fill="#57606a" font-size="10.5">⑂ 0</text>
</svg>